<svg width="40" height="40" viewBox="0 0 120 120" fill="none" xmlns="http://www.w3.org/2000/svg">
  <!-- Hull (bottom curved part) -->
  <path d="M20 85 C20 75, 30 65, 60 65 C90 65, 100 75, 100 85 C100 95, 90 100, 60 100 C30 100, 20 95, 20 85 Z" 
        fill="currentColor" 
        opacity="0.9"/>
  
  <!-- Main superstructure -->
  <rect x="35" y="45" width="50" height="25" rx="3" 
        fill="currentColor" 
        opacity="0.7"/>
  
  <!-- Bridge/Wheelhouse -->
  <rect x="45" y="25" width="30" height="25" rx="2" 
        fill="currentColor" 
        opacity="0.7"/>
  
  <!-- Smokestack -->
  <rect x="56" y="10" width="8" height="20" rx="1" 
        fill="currentColor" 
        opacity="0.7"/>
  
  <!-- Left tire bumper -->
  <circle cx="25" cy="78" r="10" 
          fill="currentColor" 
          opacity="0.5"/>
  <circle cx="25" cy="78" r="6" 
          fill="none" 
          stroke="currentColor" 
          stroke-width="1" 
          opacity="0.3"/>
  
  <!-- Right tire bumper -->
  <circle cx="95" cy="78" r="10" 
          fill="currentColor" 
          opacity="0.5"/>
  <circle cx="95" cy="78" r="6" 
          fill="none" 
          stroke="currentColor" 
          stroke-width="1" 
          opacity="0.3"/>
  
  <!-- Bridge windows -->
  <rect x="50" y="32" width="6" height="10" rx="1" 
        fill="currentColor" 
        opacity="0.3"/>
  <rect x="64" y="32" width="6" height="10" rx="1" 
        fill="currentColor" 
        opacity="0.3"/>
</svg>